HIERARCHY
ROOT Hips
{
	OFFSET 0.000000 0.000000 0.000000
	CHANNELS 6 Xposition Yposition Zposition Xrotation Yrotation Zrotation
	JOINT LeftUpLeg_virtual
	{
		OFFSET 0.000000 0.000000 0.000000
		CHANNELS 3 Xrotation Yrotation Zrotation
		JOINT LeftUpLeg
		{
			OFFSET 15.427100 -6.655098 0.678600
			CHANNELS 3 Xrotation Yrotation Zrotation
			JOINT LeftLeg
			{
				OFFSET 4.081073 -39.591068 13.024000
				CHANNELS 3 Xrotation Yrotation Zrotation
				JOINT LeftFoot
				{
					OFFSET -4.081074 -37.707932 -15.979700
					CHANNELS 3 Xrotation Yrotation Zrotation
					JOINT LeftToeBase
					{
						OFFSET 5.346399 -15.068900 20.645000
						CHANNELS 3 Xrotation Yrotation Zrotation
						JOINT LeftToe_End
						{
							OFFSET 2.754700 0.931300 11.300900
							CHANNELS 3 Xrotation Yrotation Zrotation
							End Site
							{
								OFFSET 0 0 0
							}
						}
					}
				}
			}
		}
	}
	JOINT RightUpLeg_virtual
	{
		OFFSET 0.000000 0.000000 0.000000
		CHANNELS 3 Xrotation Yrotation Zrotation
		JOINT RightUpLeg
		{
			OFFSET -15.569500 -6.655098 0.678600
			CHANNELS 3 Xrotation Yrotation Zrotation
			JOINT RightLeg
			{
				OFFSET -4.081825 -39.591045 13.023800
				CHANNELS 3 Xrotation Yrotation Zrotation
				JOINT RightFoot
				{
					OFFSET 4.081824 -37.707954 -15.979600
					CHANNELS 3 Xrotation Yrotation Zrotation
					JOINT RightToeBase
					{
						OFFSET -5.346400 -15.068900 20.645000
						CHANNELS 3 Xrotation Yrotation Zrotation
						JOINT RightToe_End
						{
							OFFSET -2.754700 0.931300 11.300900
							CHANNELS 3 Xrotation Yrotation Zrotation
							End Site
							{
								OFFSET 0 0 0
							}
						}
					}
				}
			}
		}
	}
	JOINT Spine_virtual
	{
		OFFSET 0.000000 0.000000 0.000000
		CHANNELS 3 Xrotation Yrotation Zrotation
		JOINT Spine
		{
			OFFSET -0.279200 12.230698 -2.892100
			CHANNELS 3 Xrotation Yrotation Zrotation
			JOINT Spine1
			{
				OFFSET -0.232667 10.192268 -1.242267
				CHANNELS 3 Xrotation Yrotation Zrotation
				JOINT Spine1_split
				{
					OFFSET -0.232667 10.192268 -1.242267
					CHANNELS 3 Xrotation Yrotation Zrotation
					JOINT Spine2
					{
						OFFSET -0.232667 10.192268 -1.242267
						CHANNELS 3 Xrotation Yrotation Zrotation
						JOINT Neck_virtual
						{
							OFFSET 0.000000 0.000000 0.000000
							CHANNELS 3 Xrotation Yrotation Zrotation
							JOINT Neck
							{
								OFFSET -0.418800 17.814194 8.416900
								CHANNELS 3 Xrotation Yrotation Zrotation
								JOINT Head
								{
									OFFSET 0.000000 7.031097 3.806800
									CHANNELS 3 Xrotation Yrotation Zrotation
									JOINT HeadTop_End
									{
										OFFSET 0.000000 24.646606 12.978600
										CHANNELS 3 Xrotation Yrotation Zrotation
										End Site
										{
											OFFSET 0 0 0
										}
									}
								}
							}
						}
						JOINT LeftShoulder_virtual
						{
							OFFSET 0.000000 0.000000 0.000000
							CHANNELS 3 Xrotation Yrotation Zrotation
							JOINT LeftShoulder
							{
								OFFSET 8.476499 7.247704 -3.868750
								CHANNELS 3 Xrotation Yrotation Zrotation
								JOINT LeftShoulder_split
								{
									OFFSET 8.476499 7.247704 -3.868750
									CHANNELS 3 Xrotation Yrotation Zrotation
									JOINT LeftArm
									{
										OFFSET 9.308998 -2.777710 0.208600
										CHANNELS 3 Xrotation Yrotation Zrotation
										JOINT LeftForeArm
										{
											OFFSET 29.972298 0.000000 0.000000
											CHANNELS 3 Xrotation Yrotation Zrotation
											JOINT LeftHand
											{
												OFFSET 26.026505 0.000000 0.000000
												CHANNELS 3 Xrotation Yrotation Zrotation
												End Site
												{
													OFFSET 0 0 0
												}
											}
										}
									}
								}
							}
						}
						JOINT RightShoulder_virtual
						{
							OFFSET 0.000000 0.000000 0.000000
							CHANNELS 3 Xrotation Yrotation Zrotation
							JOINT RightShoulder
							{
								OFFSET -7.570500 7.247704 -3.868750
								CHANNELS 3 Xrotation Yrotation Zrotation
								JOINT RightShoulder_split
								{
									OFFSET -7.570500 7.247704 -3.868750
									CHANNELS 3 Xrotation Yrotation Zrotation
									JOINT RightArm
									{
										OFFSET -9.308998 -2.777710 0.208500
										CHANNELS 3 Xrotation Yrotation Zrotation
										JOINT RightForeArm
										{
											OFFSET -29.972300 0.000000 0.000000
											CHANNELS 3 Xrotation Yrotation Zrotation
											JOINT RightHand
											{
												OFFSET -26.026505 0.000000 0.000000
												CHANNELS 3 Xrotation Yrotation Zrotation
												End Site
												{
													OFFSET 0 0 0
												}
											}
										}
									}
								}
							}
						}
					}
				}
			}
		}
	}
}
MOTION
Frames: 10
Frame Time: 0.03333333
2.386702 68.376060 -61.820206 0.000000 0.000000 0.000000 19.767601 -59.898888 15.580672 -37.620327 -2.779332 29.432276 63.821547 -3.578934 1.932707 -18.892865 16.578763 -27.811017 -4.388581 -5.503222 -1.631772 0.000000 0.000000 0.000000 20.840596 -59.952327 17.012767 -49.023369 0.632300 -14.093120 70.884106 13.995263 -4.832382 -32.345491 -4.961218 20.291905 7.208327 4.520179 -26.556377 0.000000 0.000000 0.000000 20.308664 -58.376227 15.259606 3.120174 14.428891 -0.776782 10.696799 14.326462 -7.077369 0.363942 -1.043143 0.134246 0.000000 0.000000 0.000000 13.253204 15.734261 -6.941652 -8.340586 7.856838 17.277930 -40.903964 -37.319201 -18.991744 0.000000 0.000000 0.000000 8.818964 14.079226 -6.885159 8.028156 -11.443389 5.881855 1.908278 3.058859 -1.472668 -94.151050 -34.646609 -62.082718 3.417962 -64.978178 -2.922993 0.000000 0.000000 0.000000 9.769318 14.250659 -5.699851 7.963569 -3.651140 -6.762343 -9.186066 3.866502 -0.826296 -51.040723 0.608375 20.003228 -25.360591 38.154779 19.962295 0.000000 0.000000 0.000000 
3.411674 66.597366 -62.119308 0.000000 0.000000 0.000000 23.820975 -58.140046 19.726814 -44.476607 -3.266543 29.875732 65.126742 -4.922697 1.760965 -17.998629 16.159773 -28.148813 -1.930219 -5.415108 -2.122582 0.000000 0.000000 0.000000 23.455983 -58.417146 20.176809 -52.789070 3.082907 -14.475415 73.977506 13.253222 -4.431399 -32.888420 -6.073475 20.753685 7.895432 4.251715 -25.266045 0.000000 0.000000 0.000000 23.607746 -56.373144 18.858794 5.185390 13.755840 -1.094224 11.005002 13.786815 -6.977362 0.360261 -1.166164 0.097721 0.000000 0.000000 0.000000 13.170280 15.216205 -6.531717 -9.873120 6.786196 17.863330 -42.053751 -27.306809 -19.077265 0.000000 0.000000 0.000000 8.870630 13.567717 -6.949173 7.069700 -11.980760 3.976873 0.708286 3.625800 -2.027467 -77.435999 -25.645166 -54.272427 5.385531 -64.881729 -1.635008 0.000000 0.000000 0.000000 9.929760 13.905492 -5.494263 7.314234 -5.232608 -3.173107 -10.367580 4.742471 -1.265449 -42.513952 -3.147412 20.769594 -21.896548 36.111056 20.506403 0.000000 0.000000 0.000000 
4.133882 65.633316 -61.900345 0.000000 0.000000 0.000000 27.495488 -56.575201 23.734187 -50.423465 -2.808108 29.950516 65.042867 -6.035824 1.416749 -16.023363 15.124890 -27.027632 -1.204117 -5.449548 -2.837802 0.000000 0.000000 0.000000 25.743208 -57.163871 23.304027 -56.090951 6.095982 -15.322360 75.942018 12.889422 -4.095000 -32.191126 -6.887591 22.568465 8.026738 4.144190 -23.051216 0.000000 0.000000 0.000000 26.331993 -54.248982 22.016473 6.794324 12.936070 -1.140699 11.228211 13.124168 -6.815698 0.321366 -1.231765 0.048491 0.000000 0.000000 0.000000 13.025141 14.530061 -6.040370 -11.593888 5.722870 18.108512 -41.920235 -16.663438 -18.869043 0.000000 0.000000 0.000000 8.800577 13.012440 -7.016441 6.226883 -11.866683 2.536764 0.127023 3.796124 -1.912734 -60.934235 -14.759048 -50.213789 6.380087 -62.406284 -0.659305 0.000000 0.000000 0.000000 10.081515 13.436061 -5.309941 6.786120 -6.063279 0.051616 -10.721246 5.860813 -1.537023 -33.048922 -9.185407 23.492623 -18.582578 34.921326 20.831413 0.000000 0.000000 0.000000 
4.625757 65.263168 -61.571732 0.000000 0.000000 0.000000 29.877163 -55.171505 26.688339 -54.997633 -1.518266 29.915843 64.130777 -7.161042 0.949624 -13.512573 13.595674 -25.038309 -1.796998 -5.503361 -3.813736 0.000000 0.000000 0.000000 27.517420 -56.065468 25.953681 -58.114173 8.938003 -16.325197 76.902398 13.026118 -4.087488 -31.414082 -7.379026 25.672823 7.114599 4.366465 -20.486568 0.000000 0.000000 0.000000 27.840242 -52.429550 24.209711 7.809072 12.156909 -0.803408 11.413203 12.456981 -6.721247 0.270004 -1.242809 0.064185 0.000000 0.000000 0.000000 12.854991 13.779662 -5.666827 -13.461429 4.717165 17.918071 -40.573462 -6.478304 -18.396722 0.000000 0.000000 0.000000 8.773714 12.438339 -7.194279 5.506131 -11.314557 1.478672 0.041959 3.561892 -1.394654 -45.292975 -4.318409 -50.894202 6.929606 -58.761183 0.133688 0.000000 0.000000 0.000000 10.353152 12.932857 -5.253017 6.365364 -5.795269 3.091982 -11.046913 6.790395 -1.517297 -22.578462 -16.275333 28.755291 -15.376950 33.882851 20.577854 0.000000 0.000000 0.000000 
4.774235 65.410553 -61.187157 0.000000 0.000000 0.000000 30.256044 -53.899833 27.997307 -57.600618 0.245694 29.737687 62.346240 -8.394250 0.381915 -11.315812 11.896195 -22.783467 -3.183637 -5.445967 -4.872462 0.000000 0.000000 0.000000 28.473583 -54.693372 27.582510 -58.129076 10.923789 -17.538136 76.792452 13.411572 -4.307895 -31.256735 -7.736291 28.838449 5.776259 4.822391 -17.931533 0.000000 0.000000 0.000000 28.048115 -50.940391 25.262168 8.240266 11.504544 -0.142164 11.567323 11.824751 -6.739697 0.141100 -1.177735 0.109015 0.000000 0.000000 0.000000 12.705815 13.038378 -5.514970 -15.397816 3.968490 17.238402 -38.319673 1.978925 -17.747608 0.000000 0.000000 0.000000 8.871309 11.853047 -7.519354 4.868469 -10.568614 0.662540 -0.256535 3.267007 -0.966853 -31.403738 3.781373 -55.451598 7.542951 -54.859779 0.922928 0.000000 0.000000 0.000000 10.784534 12.429355 -5.343871 6.020948 -4.392989 5.858842 -11.606478 7.378584 -1.076547 -12.400313 -22.692829 35.855170 -12.469035 32.305108 19.660341 0.000000 0.000000 0.000000 
4.820982 66.089439 -60.988716 0.000000 0.000000 0.000000 28.780430 -52.590882 27.658214 -58.172120 1.876924 29.003961 60.113601 -9.682674 -0.003958 -9.531828 10.190066 -21.086295 -4.138707 -5.221210 -5.907164 0.000000 0.000000 0.000000 28.311913 -53.332122 27.939428 -56.244098 11.378562 -18.945527 75.519503 13.572357 -4.504754 -31.897735 -8.513325 31.103749 4.949584 5.275481 -15.603986 0.000000 0.000000 0.000000 27.187447 -49.652733 25.278301 8.219712 10.968247 0.666780 11.675107 11.219502 -6.818857 0.003807 -1.140574 0.174677 0.000000 0.000000 0.000000 12.556622 12.348209 -5.521938 -17.156698 3.493599 16.011606 -35.603925 8.088045 -16.790174 0.000000 0.000000 0.000000 9.019821 11.247681 -7.858028 4.321819 -9.652171 0.079749 -0.805896 2.840838 -0.878942 -20.614450 8.750612 -61.773310 8.190730 -51.075489 1.603163 0.000000 0.000000 0.000000 11.251643 11.912040 -5.491940 5.677566 -2.231592 8.151325 -12.153090 7.341938 -0.873498 -4.621870 -27.525061 43.145940 -10.172443 29.960338 18.241284 0.000000 0.000000 0.000000 
4.742849 67.376274 -60.761734 0.000000 0.000000 0.000000 26.113280 -51.192531 26.150486 -56.764770 3.088279 27.544568 57.653791 -11.053413 -0.054867 -8.246159 8.382867 -20.380574 -4.461039 -4.924925 -6.349416 0.000000 0.000000 0.000000 27.058375 -52.011214 27.162750 -52.581808 10.031161 -20.498632 73.238466 13.435115 -4.519661 -32.807827 -9.967381 32.186109 4.399983 5.630685 -13.553862 0.000000 0.000000 0.000000 25.308212 -48.234775 24.218729 7.955367 10.459754 1.349998 11.730092 10.603272 -6.847103 -0.066985 -1.105680 0.224979 0.000000 0.000000 0.000000 12.368918 11.718865 -5.556518 -18.538194 3.285033 14.376712 -32.997351 11.884248 -15.325652 0.000000 0.000000 0.000000 9.145219 10.614814 -8.020447 3.822569 -8.479774 -0.313240 -1.690338 2.370168 -1.215306 -13.655706 11.252843 -67.810651 8.798483 -47.441995 2.017714 0.000000 0.000000 0.000000 11.613219 11.339174 -5.542520 5.349723 0.136865 9.727382 -12.509252 6.848351 -0.726514 -0.450080 -30.775487 49.059610 -8.679640 26.988432 16.589624 0.000000 0.000000 0.000000 
4.591031 69.195251 -60.476669 0.000000 0.000000 0.000000 22.874445 -49.593211 24.003376 -53.828516 3.880137 25.341306 54.914557 -12.235972 0.207925 -7.764444 6.401256 -20.167342 -3.852802 -4.701381 -5.967529 0.000000 0.000000 0.000000 24.657434 -50.416365 25.294238 -47.661337 7.058912 -22.074966 70.158276 13.059143 -4.301777 -33.351356 -11.918240 32.327142 3.724941 5.861369 -11.877649 0.000000 0.000000 0.000000 22.995039 -46.382073 22.478328 7.585786 9.862936 1.671750 11.715499 9.939093 -6.700728 -0.055539 -1.055291 0.254529 0.000000 0.000000 0.000000 12.143002 11.141351 -5.475518 -19.375848 3.333555 12.467925 -30.938086 13.520384 -13.364680 0.000000 0.000000 0.000000 9.188672 9.967475 -7.880754 3.378254 -7.139838 -0.610288 -2.569054 1.742715 -2.026386 -10.129083 12.225498 -72.501898 9.119784 -44.079766 2.058370 0.000000 0.000000 0.000000 11.763229 10.698354 -5.395061 5.086659 2.250797 10.526288 -12.109582 6.084685 -0.668400 0.214150 -32.776705 53.017578 -7.989138 23.642859 14.909587 0.000000 0.000000 0.000000 
4.259951 71.396835 -60.223892 0.000000 0.000000 0.000000 19.625013 -47.614468 21.543465 -50.278918 4.014542 22.623842 52.096298 -13.078422 0.764200 -7.777192 4.127537 -20.129577 -2.133421 -4.632192 -4.909695 0.000000 0.000000 0.000000 21.606969 -48.676470 22.805969 -42.115510 3.037591 -23.404757 66.237761 12.622126 -3.877625 -33.272529 -14.127758 32.009565 2.736367 5.957383 -10.610135 0.000000 0.000000 0.000000 20.323062 -44.056011 20.149442 7.117169 9.115967 1.508974 11.580719 9.210159 -6.316739 0.060210 -1.003473 0.267873 0.000000 0.000000 0.000000 11.861878 10.588349 -5.185973 -19.622153 3.467814 10.460093 -29.440912 13.632770 -11.093598 0.000000 0.000000 0.000000 9.107307 9.323255 -7.373684 3.002972 -5.584799 -0.772115 -2.927019 1.191558 -2.636276 -8.835448 11.853314 -75.414994 9.061465 -41.100855 1.700626 0.000000 0.000000 0.000000 11.654399 9.986058 -5.027590 4.913281 3.692127 10.656663 -10.911517 5.258016 -0.670566 -1.268427 -33.688487 55.430632 -7.928961 20.392764 13.356230 0.000000 0.000000 0.000000 
3.710043 73.815979 -60.080345 0.000000 0.000000 0.000000 16.624721 -45.434155 18.923603 -46.399230 3.672077 19.765212 49.003144 -13.443198 1.348035 -7.954370 1.695863 -19.932734 -0.403219 -4.689791 -3.155633 0.000000 0.000000 0.000000 18.284975 -46.636221 19.925738 -36.135075 -1.247864 -24.254828 61.361750 12.308844 -3.289571 -32.692157 -16.274227 31.341785 1.630790 5.952991 -9.718805 0.000000 0.000000 0.000000 17.582237 -41.367324 17.465934 6.547068 8.295436 0.915517 11.336696 8.456095 -5.691273 0.175305 -0.879172 0.261286 0.000000 0.000000 0.000000 11.600023 10.046494 -4.699763 -19.325472 3.719972 8.583442 -28.376400 12.557616 -8.840898 0.000000 0.000000 0.000000 8.929368 8.707454 -6.569360 2.689056 -3.993241 -0.836019 -3.127459 0.854151 -2.898451 -8.565875 10.370954 -76.837326 8.574678 -38.826296 1.051723 0.000000 0.000000 0.000000 11.354849 9.224519 -4.494130 4.834509 4.384803 10.239678 -9.433336 4.353670 -0.311636 -3.172913 -33.480266 57.063369 -8.364195 17.710201 12.094396 0.000000 0.000000 0.000000 
